<svg id="Group_21048" data-name="Group 21048" xmlns="http://www.w3.org/2000/svg" xmlns:xlink="http://www.w3.org/1999/xlink" width="21.051" height="21" viewBox="0 0 21.051 21">
  <defs>
    <clipPath id="clip-path">
      <path id="Path_16027" data-name="Path 16027" d="M36.5-750.693a3,3,0,0,1,3,3h0l.051,15a3,3,0,0,1-3,3H18.5v-18a3,3,0,0,1,3-3h15Zm0,2h-15a1,1,0,0,0-1,1h0v16H36.551a1,1,0,0,0,1-.925h0l0-.075-.051-15a1,1,0,0,0-1-1ZM33.017-745l1.483,1.342L28-736.044l-3.836-3.373L25.5-740.9l2.353,2.038Z" transform="translate(-18.5 750.693)" fill="none"/>
    </clipPath>
  </defs>
  <g id="Group_21036" data-name="Group 21036" clip-path="url(#clip-path)">
    <path id="Path_16026" data-name="Path 16026" d="M17.5-751.693H40.551v23H17.5Z" transform="translate(-18.5 750.693)" fill="#fff"/>
  </g>
</svg>
