<svg xmlns="http://www.w3.org/2000/svg" xmlns:xlink="http://www.w3.org/1999/xlink" width="24.051" height="24" viewBox="0 0 24.051 24">
  <defs>
    <clipPath id="clip-path">
      <path id="Path_16024" data-name="Path 16024" d="M38-852.193a3,3,0,0,1,3,3h0l.051,18a3,3,0,0,1-3,3H17v-21a3,3,0,0,1,3-3H38Zm0,2H20a1,1,0,0,0-1,1h0v19H38.051a1,1,0,0,0,1-.925h0l0-.075-.051-18a1,1,0,0,0-1-1Zm-13.75,11.75v2h-2v-2Zm11.5,0v2h-9v-2Zm-11.5-5.5v2h-2v-2Zm11.5,0v2h-9v-2Z" transform="translate(-17 852.193)" fill="none"/>
    </clipPath>
  </defs>
  <g id="Group_21034" data-name="Group 21034" clip-path="url(#clip-path)">
    <path id="Path_16023" data-name="Path 16023" d="M16-853.193H42.051v26H16Z" transform="translate(-17 852.193)" fill="#fff"/>
  </g>
</svg>
