<svg xmlns="http://www.w3.org/2000/svg" xmlns:xlink="http://www.w3.org/1999/xlink" width="16.708" height="17.177" viewBox="0 0 16.708 17.177">
  <defs>
    <clipPath id="clip-path">
      <path id="Path_18535" data-name="Path 18535" d="M3795.066-3064.771a6.349,6.349,0,0,0,.054-.841,5.2,5.2,0,0,0-.062-.841l1.816-1.414a.439.439,0,0,0,.107-.546l-1.717-2.97a.438.438,0,0,0-.528-.2l-2.138.859a6.316,6.316,0,0,0-1.449-.841l-.323-2.272a.433.433,0,0,0-.429-.367h-3.435a.424.424,0,0,0-.421.367l-.322,2.272a6.5,6.5,0,0,0-1.449.841l-2.138-.859a.427.427,0,0,0-.527.2l-1.708,2.97a.406.406,0,0,0,.107.546l1.815,1.414a5.279,5.279,0,0,0-.08.841,5.277,5.277,0,0,0,.063.841l-1.816,1.414a.439.439,0,0,0-.107.546l1.717,2.97a.438.438,0,0,0,.528.2l2.138-.859a6.328,6.328,0,0,0,1.449.841l.322,2.272a.439.439,0,0,0,.43.367h3.435a.418.418,0,0,0,.42-.367l.322-2.272a6.147,6.147,0,0,0,1.449-.841l2.138.859a.427.427,0,0,0,.527-.2l1.718-2.97a.414.414,0,0,0-.107-.546Zm-6.388,2.38a3.23,3.23,0,0,1-3.221-3.221,3.231,3.231,0,0,1,3.221-3.221,3.231,3.231,0,0,1,3.221,3.221A3.23,3.23,0,0,1,3788.678-3062.391Z" transform="translate(-0.001 0)" fill="#1d252d"/>
    </clipPath>
  </defs>
  <g id="Group_27917" data-name="Group 27917" transform="translate(-3780.324 3074.2)" clip-path="url(#clip-path)">
    <path id="Path_18534" data-name="Path 18534" d="M3779.221-3075.2h17.7v18.072h-17.7Z" transform="translate(0.609 0.553)" fill="#1d252d"/>
  </g>
</svg>
