<svg xmlns="http://www.w3.org/2000/svg" width="6.248" height="21.894" viewBox="0 0 6.248 21.894">
  <path id="ic_more_vert_24px" d="M3.124,5.473A2.958,2.958,0,0,0,6.248,2.737,2.958,2.958,0,0,0,3.124,0,2.958,2.958,0,0,0,0,2.737,2.958,2.958,0,0,0,3.124,5.473Zm0,2.737A2.958,2.958,0,0,0,0,10.947a2.958,2.958,0,0,0,3.124,2.737,2.958,2.958,0,0,0,3.124-2.737A2.958,2.958,0,0,0,3.124,8.21Zm0,8.21A2.958,2.958,0,0,0,0,19.157a2.958,2.958,0,0,0,3.124,2.737,2.958,2.958,0,0,0,3.124-2.737A2.958,2.958,0,0,0,3.124,16.42Z" fill="#1d252d"/>
</svg>
