<svg xmlns="http://www.w3.org/2000/svg" xmlns:xlink="http://www.w3.org/1999/xlink" width="15.619" height="15.619" viewBox="0 0 15.619 15.619">
  <defs>
    <clipPath id="clip-path">
      <path id="Path_18592" data-name="Path 18592" d="M2362.946-2429h-12.272a1.674,1.674,0,0,0-1.673,1.674v13.946h13.946a1.674,1.674,0,0,0,1.674-1.673v-12.272A1.674,1.674,0,0,0,2362.946-2429Zm-8.367,11.714a.557.557,0,0,1-.558.558h-1.116a.558.558,0,0,1-.558-.558v-4.462a.558.558,0,0,1,.558-.558h1.116a.558.558,0,0,1,.558.558Zm3.347,0a.558.558,0,0,1-.558.558h-1.115a.558.558,0,0,1-.558-.558v-7.81a.558.558,0,0,1,.558-.558h1.115a.558.558,0,0,1,.558.558Zm3.347,0a.557.557,0,0,1-.558.558H2359.6a.557.557,0,0,1-.558-.558v-2.231a.557.557,0,0,1,.558-.558h1.116a.557.557,0,0,1,.558.558Z" transform="translate(-2349 2429)" fill="rgba(0,0,0,0)"/>
    </clipPath>
  </defs>
  <g id="Group_30078" data-name="Group 30078" clip-path="url(#clip-path)">
    <path id="Path_18591" data-name="Path 18591" d="M2348-2430h16.27v16.27H2348Z" transform="translate(-2348.325 2429.675)" fill="#1d242d"/>
  </g>
</svg>
