<?xml version="1.0" encoding="iso-8859-1"?>
<!-- Generator: Adobe Illustrator 22.1.0, SVG Export Plug-In . SVG Version: 6.00 Build 0)  -->
<svg version="1.1" id="Layer_1" xmlns="http://www.w3.org/2000/svg" xmlns:xlink="http://www.w3.org/1999/xlink" x="0px" y="0px"
	 viewBox="0 0 225 83" style="enable-background:new 0 0 225 83;" xml:space="preserve">
<g>
	<path style="fill:#4F008C;" d="M214,57.025c0,15.3-10.99,24.997-28.444,24.997h-29.306V1.213h31.138
		c14.761,0,23.812,7.758,23.812,20.256c0,7.327-3.879,13.037-10.343,16.054C209.151,40.648,214,47.543,214,57.025z M185.987,13.065
		h-16.054v18.77h15.946c7.327,0,11.852-2.716,11.852-8.75C197.731,16.621,193.529,13.065,185.987,13.065z M200.209,57.025
		c0-7.865-5.495-11.895-15.407-11.895h-14.869v25.04h14.761C194.283,70.17,200.209,65.106,200.209,57.025z"/>
	<g>
		<rect x="129.279" y="1.213" style="fill:#4F008C;" width="14.33" height="30.207"/>
		<path style="fill:#4F008C;" d="M129.279,45.484v4.538c0,12.283-7.111,20.579-19.717,20.579c-12.498,0-19.717-8.296-19.717-20.579
			v-4.538h-14.33v3.568c0,21.333,13.36,34.585,34.047,34.585c20.795,0,34.047-13.252,34.047-34.585v-3.568H129.279z"/>
		<rect x="75.515" y="1.213" style="fill:#4F008C;" width="14.33" height="30.207"/>
	</g>
	<rect x="156.249" y="31.818" style="fill:#FF385D;" width="13.691" height="13.334"/>
	<g>
		<rect x="48.545" y="1.213" style="fill:#4F008C;" width="14.33" height="30.207"/>
		<polygon style="fill:#4F008C;" points="48.545,31.383 16.33,31.383 16.33,1.213 2,1.213 2,31.383 2,31.421 2,45.484 2,45.501 
			2,82.021 16.33,82.021 16.33,45.501 48.545,45.501 		"/>
		<rect x="48.545" y="45.484" style="fill:#4F008C;" width="14.33" height="36.538"/>
	</g>
</g>
</svg>
