<svg xmlns="http://www.w3.org/2000/svg" xmlns:xlink="http://www.w3.org/1999/xlink" width="21" height="24" viewBox="0 0 21 24">
  <defs>
    <clipPath id="clip-path">
      <path id="Path_15998" data-name="Path 15998" d="M1337.5-33.25a7.4,7.4,0,0,0-6-7.273v.023A1.5,1.5,0,0,0,1330-42a1.5,1.5,0,0,0-1.5,1.5v-.023a7.4,7.4,0,0,0-6,7.273c0,4.8-1.7,7.259-2.6,8.232a1.463,1.463,0,0,0-.4,1.018,1.5,1.5,0,0,0,1.505,1.5h17.99A1.5,1.5,0,0,0,1340.5-24a1.462,1.462,0,0,0-.4-1.018C1339.191-25.991,1337.5-28.455,1337.5-33.25ZM1322.3-24.434c1.044-1.376,2.185-4.657,2.191-8.843,0-.01,0-.019,0-.029a5.51,5.51,0,0,1,5.51-5.51,5.51,5.51,0,0,1,5.51,5.51c0,.01,0,.019,0,.029.006,4.187,1.147,7.468,2.191,8.843ZM1330-18a3,3,0,0,0,3-3h-6A3,3,0,0,0,1330-18Z" transform="translate(-1319.5 42)" fill="none"/>
    </clipPath>
  </defs>
  <g id="Group_21016" data-name="Group 21016" clip-path="url(#clip-path)">
    <path id="Path_15997" data-name="Path 15997" d="M1318.5-43h23v26h-23Z" transform="translate(-1319.5 42)" fill="#8d9aa0"/>
  </g>
</svg>
